Coordinates
version=1
nRows=24
nColumns=24
inDegrees=yes

Units are S.I. units (second, meters, Newtons, ...)
Angles are in degrees.

endheader
time	pelvis_tilt	pelvis_list	pelvis_rotation	pelvis_tx	pelvis_ty	pelvis_tz	hip_flexion_r	hip_adduction_r	hip_rotation_r	knee_angle_r	ankle_angle_r	subtalar_angle_r	mtp_angle_r	hip_flexion_l	hip_adduction_l	hip_rotation_l	knee_angle_l	ankle_angle_l	subtalar_angle_l	mtp_angle_l	lumbar_extension	lumbar_bending	lumbar_rotation
      0.81650000	     -3.41455681	     -1.30413274	      0.65737160	     -0.47557271	      1.00177878	      0.32081583	     16.50955715	      5.07824389	      1.52292127	    -22.23950703	      9.38946948	    -12.95107465	      1.00801163	     17.11589249	     -1.91701059	     -4.62650615	    -69.25990563	     -8.32080137	     -8.99723747	      5.94207893	     -9.03970535	      8.54466781	     -0.11692342
      0.82066667	     -3.37000463	     -1.15530283	      0.66714299	     -0.47074085	      1.00283122	      0.32107650	     15.96286010	      4.94946425	      1.61705947	    -21.85666134	      9.47489107	    -12.97774217	      0.98258340	     17.64283796	     -1.82772256	     -4.70414296	    -69.11740261	     -7.91182182	     -9.32725316	      5.73726600	     -9.12559727	      8.28382953	      0.18770653
      0.82483333	     -3.33139376	     -1.02409214	      0.68267315	     -0.46593502	      1.00381121	      0.32132702	     15.43057681	      4.83397925	      1.67720185	    -21.48591696	      9.55030519	    -12.98381118	      0.96948798	     18.17537915	     -1.75679178	     -4.77501904	    -68.94518236	     -7.46507443	     -9.64182337	      5.63954170	     -9.20599477	      8.05468381	      0.35336918
      0.82900000	     -3.25643458	     -0.87912260	      0.67822416	     -0.46106400	      1.00487967	      0.32160512	     14.82833017	      4.71045840	      1.77533781	    -21.05638892	      9.63331637	    -13.01518919	      0.94590262	     18.63561424	     -1.67716950	     -4.86906305	    -68.68073559	     -7.11958155	     -9.92788909	      5.46240276	     -9.31063774	      7.77915242	      0.71962094
      0.83316667	     -3.20936716	     -0.72705613	      0.67839055	     -0.45625473	      1.00582733	      0.32184475	     14.28300530	      4.57030894	      1.83845390	    -20.67773610	      9.70219007	    -13.00153969	      0.93124963	     19.12636313	     -1.57723059	     -4.94621459	    -68.38964801	     -6.68810642	    -10.19519014	      5.35926957	     -9.40235311	      7.52805794	      0.91222237
      0.83733333	     -3.13735426	     -0.58376028	      0.66356272	     -0.45138261	      1.00682085	      0.32210981	     13.68277884	      4.44371643	      1.92147388	    -20.24499969	      9.79942442	    -12.99893546	      0.90526824	     19.56298032	     -1.49505999	     -5.04042138	    -68.02245532	     -6.34107002	    -10.41999036	      5.17260256	     -9.50344884	      7.26262405	      1.28280957
      0.84150000	     -3.14412443	     -0.43425610	      0.65441401	     -0.44654778	      1.00763858	      0.32233377	     13.18864218	      4.30158871	      1.97646962	    -19.85244698	      9.86338488	    -12.96975214	      0.73199571	     20.08488031	     -1.39259087	     -5.11493323	    -67.62994016	     -5.90408168	    -10.56362244	      4.00161716	     -9.51545237	      6.98334438	      1.68340390
      0.84566667	     -3.04702955	     -0.26793069	      0.63731156	     -0.44170797	      1.00858946	      0.32255296	     12.57827869	      4.14020734	      2.02465711	    -19.45244494	      9.95128456	    -12.93180666	      0.72286128	     20.46609589	     -1.27297159	     -5.20473536	    -67.15665548	     -5.51400064	    -10.79817570	      3.95706740	     -9.65218087	      6.74169774	      1.74642714
      0.84983333	     -2.97812066	     -0.12616591	      0.62258985	     -0.43685878	      1.00945962	      0.32276002	     11.98510035	      4.00266639	      2.07610187	    -19.02356287	     10.06238602	    -12.86338047	      0.69998480	     20.87053716	     -1.17507797	     -5.27484803	    -66.64485608	     -5.15226521	    -10.94975043	      3.84151657	     -9.76051469	      6.49178079	      2.07080526
      0.85400000	     -3.00236526	     -0.00813274	      0.62908015	     -0.43203178	      1.01013479	      0.32293556	     11.49844088	      3.88618866	      2.11109597	    -18.60573587	     10.16888681	    -12.81474706	      0.69804362	     21.37790315	     -1.08774457	     -5.30335312	    -66.10790611	     -4.79662474	    -11.07509272	      3.83221991	     -9.72558411	      6.31347558	      2.12050746
      0.85816667	     -2.86532841	      0.17853612	      0.60000673	     -0.42718025	      1.01103200	      0.32311433	     10.84272843	      3.69195285	      2.12596693	    -18.19715960	     10.24708733	    -12.74029911	      0.68002622	     21.66463415	     -0.93766760	     -5.39076195	    -65.47029464	     -4.38399704	    -11.12380726	      3.75604907	     -9.93655973	      5.98594498	      2.50577274
      0.86233333	     -2.86363658	      0.30779411	      0.59060719	     -0.42235323	      1.01166079	      0.32325207	     10.33734179	      3.55526898	      2.13575429	    -17.79360231	     10.29554596	    -12.66785117	      0.66848187	     22.10690576	     -0.82917233	     -5.42017719	    -64.82550452	     -3.96756848	    -11.19023167	      3.71197307	     -9.96243012	      5.78502610	      2.69147640
      0.86650000	     -2.79792465	      0.44352262	      0.57204933	     -0.41749153	      1.01235851	      0.32340773	      9.75136263	      3.41322170	      2.14731471	    -17.37106263	     10.42195057	    -12.57257408	      0.64916994	     22.45486569	     -0.72358747	     -5.47127033	    -64.11564852	     -3.59345968	    -11.20691976	      3.62895419	    -10.05997821	      5.53651044	      2.98932863
      0.87066667	     -2.79545903	      0.56980347	      0.56698185	     -0.41266739	      1.01290121	      0.32350495	      9.24706303	      3.27304487	      2.13160980	    -16.96809920	     10.46612540	    -12.48804572	      0.63804993	     22.86680219	     -0.60601858	     -5.48003209	    -63.37167444	     -3.18518148	    -11.21737983	      3.58925556	    -10.08243135	      5.34124475	      3.13870016
      0.87483333	     -2.70967551	      0.67512595	      0.55349238	     -0.40781443	      1.01352006	      0.32362031	      8.63468474	      3.15808105	      2.12960908	    -16.53057498	     10.58935182	    -12.37969115	      0.61872246	     23.16897249	     -0.52161836	     -5.50015893	    -62.57840472	     -2.79711797	    -11.16227075	      3.50756840	    -10.21057933	      5.14507292	      3.41811214
      0.87900000	     -2.69407212	      0.80811974	      0.54714313	     -0.40297071	      1.01401373	      0.32367447	      8.11603161	      3.00422061	      2.09732233	    -16.12746736	     10.63498015	    -12.28083621	      0.60694259	     23.52823058	     -0.38313292	     -5.49196018	    -61.72338599	     -2.41292287	    -11.12243100	      3.46390295	    -10.24839177	      4.94851136	      3.56675813
      0.88316667	     -2.66330722	      0.90108516	      0.53714790	     -0.39811659	      1.01444817	      0.32375117	      7.57256066	      2.89678850	      2.07364019	    -15.70878044	     10.76435599	    -12.15036338	      0.59077327	     23.86307853	     -0.29739694	     -5.48565624	    -60.84344652	     -2.03628024	    -11.03564233	      3.38944180	    -10.30746905	      4.76811708	      3.81602967
      0.88733333	     -2.63942934	      0.99920925	      0.53179007	     -0.39326513	      1.01484840	      0.32377766	      7.04181675	      2.77763374	      2.03183837	    -15.29626733	     10.80575538	    -12.03724991	      0.57971176	     24.18438910	     -0.18571314	     -5.44559945	    -59.90242773	     -1.66758954	    -10.95235541	      3.34378798	    -10.35677641	      4.61498272	      3.96739444
      0.89150000	     -2.57031996	      1.08756507	      0.52162662	     -0.38838670	      1.01526158	      0.32381929	      6.45200148	      2.67006672	      1.99006281	    -14.86652079	     10.92817126	    -11.89712788	      0.56675275	     24.43809060	     -0.09224515	     -5.41703583	    -58.91602109	     -1.32369772	    -10.84399105	      3.27458326	    -10.46202433	      4.45220767	      4.18411940
      0.89566667	     -2.55309129	      1.16096061	      0.51452285	     -0.38352270	      1.01552578	      0.32383218	      5.93069152	      2.57571997	      1.94099393	    -14.46022946	     11.01823600	    -11.75657069	      0.55465260	     24.73920111	     -0.00209026	     -5.35940603	    -57.89731652	     -0.98523573	    -10.72500856	      3.20387144	    -10.50913502	      4.31870477	      4.37385326
      0.89983333	     -2.51204054	      1.24300245	      0.50527081	     -0.37863628	      1.01580770	      0.32382191	      5.37913392	      2.46900024	      1.88420593	    -14.04495577	     11.10485400	    -11.59967440	      0.54432464	     24.98721083	      0.10519208	     -5.29240851	    -56.81238650	     -0.68037959	    -10.61682320	      3.13324215	    -10.58313411	      4.17856454	      4.54977189
      0.90400000	     -2.48599295	      1.29735766	      0.49713881	     -0.37374012	      1.01599868	      0.32381019	      4.84353607	      2.39210865	      1.82529477	    -13.62980235	     11.18879773	    -11.44743660	      0.53566766	     25.24031029	      0.18593036	     -5.20801704	    -55.69687561	     -0.39006671	    -10.48999668	      3.06246187	    -10.63722470	      4.07273084	      4.72593227
      0.90816667	     -2.42807867	      1.35864683	      0.48951359	     -0.36881436	      1.01621557	      0.32377867	      4.26644386	      2.30489724	      1.75512264	    -13.20061683	     11.26877407	    -11.28591496	      0.52954304	     25.43130011	      0.28036308	     -5.11395302	    -54.51638860	     -0.13839966	    -10.37853542	      2.99553686	    -10.72459351	      3.96292731	      4.89080514
      0.91233333	     -2.42459940	      1.40104847	      0.48125855	     -0.36389240	      1.01627859	      0.32372812	      3.76081959	      2.23685967	      1.68349972	    -12.79863549	     11.31929059	    -11.12662272	      0.52688807	     25.66974445	      0.36448401	     -4.99168396	    -53.30448619	      0.08833926	    -10.25740679	      2.95031439	    -10.74196102	      3.87976933	      5.03322791
